<?xml version="1.0" encoding="UTF-8"?>
<svg id="Layer_1" xmlns="http://www.w3.org/2000/svg" version="1.1" viewBox="0 0 100 100">
  <!-- Generator: Adobe Illustrator 30.1.0, SVG Export Plug-In . SVG Version: 2.1.1 Build 136)  -->
  <path fill="#4f46e5" d="M97.9,51.8c-2.1-3.6-6.1-5.7-12-6.5,1.6-4,.8-8.7-2.5-14.2-3.3-5.2-7.6-9.6-12.9-13.3,2.8-3.3,5.6-4,8.4-2.2,5.6,4.4,8.6,14.2,9.2,29.3.2.5.4.1.6-1.2.3-1.6.5-3.3.6-5.1.4-8.2-.6-15.2-3.3-20.9-2.7-5.5-6.3-8.2-10.7-8.3-3.5,0-6.9,1.8-10,5.2-.5.6-1,1.2-1.5,1.9-2.6-3.4-7.1-5.1-13.5-4.9-6.1.3-12.1,1.8-18,4.5-1.5-4-.7-6.9,2.4-8.4,6.6-2.6,16.6-.3,30,6.7.6,0,.3-.3-.7-1.1-1.2-1.1-2.6-2.1-4.2-3.1-6.9-4.6-13.5-7.1-19.8-7.8-6.1-.4-10.2,1.3-12.6,5.2-2,3.7-1.9,8.1.4,13.6-4.3.6-7.9,3.7-11,9.3-2.8,5.5-4.5,11.4-5.1,17.8-4.3-.7-6.3-2.8-6.1-6.2,1.1-7,8-14.6,20.8-22.7.3-.4-.1-.4-1.3.1-1.5.5-3.1,1.2-4.8,2-7.4,3.7-12.9,8.1-16.5,13.3-3.4,5.1-3.9,9.6-1.8,13.4,1.8,3.1,5,5.1,9.5,6.1.7.2,1.6.3,2.4.4-1.6,4-.8,8.7,2.5,14.2,3.3,5.2,7.6,9.6,12.9,13.3-2.8,3.3-5.6,4-8.4,2.2-5.6-4.4-8.6-14.2-9.2-29.3-.2-.5-.4-.1-.6,1.2-.3,1.6-.5,3.3-.6,5.1-.4,8.2.6,15.2,3.3,20.9,2.7,5.5,6.3,8.2,10.7,8.3,3.5,0,6.9-1.8,10-5.2.5-.6,1-1.2,1.5-1.9,2.6,3.4,7.1,5.1,13.5,4.9,6.1-.3,12.1-1.8,18-4.5,1.5,4,.7,6.9-2.4,8.4-6.6,2.6-16.6.3-30-6.7-.6,0-.3.3.7,1.1,1.2,1.1,2.6,2.1,4.2,3.1,6.9,4.5,13.5,7.1,19.8,7.6,6.1.4,10.2-1.3,12.6-5.2,2-3.7,1.9-8.1-.4-13.6,4.3-.6,7.9-3.7,11-9.3,2.8-5.5,4.5-11.4,5.1-17.8,4.3.7,6.3,2.8,6.1,6.2-1.1,7-8,14.6-20.8,22.7-.3.4.1.4,1.3-.1,1.5-.5,3.1-1.2,4.8-2,7.4-3.7,12.9-8.1,16.5-13.3,3.4-5.1,3.9-9.6,1.8-13.4h.1ZM67.1,23.4c.9-1.7,1.7-3.3,2.6-4.5,2.7,2.8,4.8,5.2,6.5,7.3,2.3,3.1,3.9,6,4.9,8.7,1.8,5.2,1.3,8.6-1.6,10.1-2.1.1-4.3.4-6.6.8-3-.3-6.5-1.3-10.3-3,.7-8.2,2.2-14.7,4.5-19.5h0ZM33.1,76.7c-.9,1.7-1.7,3.3-2.6,4.5-2.7-2.8-4.8-5.2-6.5-7.3-2.3-3.1-3.9-6-4.9-8.7-1.9-5.2-1.3-8.6,1.7-10.1,2.1-.1,4.3-.4,6.5-.8,3,.3,6.5,1.3,10.3,3-.7,8.2-2.2,14.7-4.5,19.5h0ZM18.4,48.7c-2,.1-3.7.1-5.2,0,1-3.8,2.1-6.9,3.1-9.3,1.5-3.5,3.2-6.4,5.1-8.7,3.5-4.1,6.7-5.4,9.5-3.7,1.2,1.9,2.6,3.8,4.2,5.6,1.2,2.8,2,6.2,2.5,10.2-7.5,3.5-13.9,5.5-19.2,5.8h0ZM35.4,22c-1.1-1.6-2-3.1-2.6-4.6,3.8-1,6.9-1.6,9.6-1.9,3.8-.4,7.1-.4,10,0,5.4,1,8.1,3.2,7.9,6.5-1,2-1.9,4-2.6,6.2-1.8,2.5-4.3,4.9-7.7,7.4-6.7-4.7-11.7-9.3-14.7-13.7h0c0,.1,0,.1,0,.1ZM54.7,52.5c-1.6.9-3,1.9-4.4,2.8-1.6-.9-3.1-1.7-4.7-2.4,0-1.8-.1-3.6-.2-5.3,1.6-.9,3-1.9,4.4-2.8,1.6.9,3.1,1.7,4.7,2.4,0,1.8.1,3.6.2,5.3ZM57.6,84.5c-3.8.4-7.1.4-10,0-5.4-1-8.1-3.2-7.9-6.5,1-2,1.9-4,2.6-6.2,1.8-2.5,4.3-4.9,7.7-7.4,6.7,4.7,11.7,9.3,14.7,13.7,1.1,1.6,2,3.1,2.6,4.6-3.8,1-6.9,1.6-9.6,1.9h0c0-.1,0-.1,0-.1ZM83.7,60.8c-1.5,3.5-3.2,6.5-5.1,8.7-3.5,4.1-6.7,5.4-9.5,3.7-1.2-1.9-2.6-3.8-4.2-5.6-1.2-2.8-2-6.2-2.5-10.2,7.5-3.5,13.9-5.5,19.2-5.8,2-.1,3.7-.1,5.2,0-1,3.8-2.1,6.9-3.1,9.3h0Z"/>
</svg>